<?xml version="1.0" encoding="UTF-8" ?>
<!DOCTYPE svg PUBLIC "-//W3C//DTD SVG 1.1//EN" "http://www.w3.org/Graphics/SVG/1.1/DTD/svg11.dtd">
<svg width="2093pt" height="214pt" viewBox="0 0 2093 214" version="1.1" xmlns="http://www.w3.org/2000/svg">
<g id="#ffffffff">
</g>
<g id="#df0000ff">
<path fill="#df0000" opacity="1.00" d=" M 123.18 8.27 C 127.96 5.13 133.47 3.16 139.00 1.80 C 148.79 1.34 159.06 0.28 168.44 3.83 C 177.49 6.92 185.05 13.79 189.74 22.04 C 215.74 68.65 242.93 114.58 269.25 161.02 C 270.42 163.23 271.92 165.25 273.49 167.19 C 292.77 167.11 312.06 166.98 331.33 167.25 C 331.68 113.30 331.42 59.33 331.46 5.37 C 351.32 5.25 371.17 5.37 391.03 5.31 C 399.78 5.10 408.24 8.61 415.37 13.48 C 425.53 21.39 432.79 32.19 441.43 41.60 C 446.91 49.03 453.12 55.87 458.97 63.00 C 466.81 73.16 475.40 82.70 483.25 92.85 C 490.50 100.91 497.35 109.33 504.20 117.73 C 510.70 125.94 517.89 133.59 523.95 142.15 C 525.92 144.64 527.90 147.95 531.55 147.77 C 531.51 100.43 531.73 53.08 531.44 5.75 C 533.23 5.20 535.05 4.58 536.96 4.67 C 542.97 4.95 549.00 4.38 554.99 5.11 C 559.33 4.03 563.67 5.85 568.00 4.92 C 571.00 4.28 573.99 5.17 577.00 5.26 C 584.29 4.21 591.67 4.84 599.01 4.65 C 603.03 4.45 606.98 5.62 611.01 5.31 C 617.96 4.41 625.02 4.49 632.00 4.89 C 636.32 5.82 640.67 3.96 645.01 4.96 C 651.67 6.19 658.33 4.33 665.01 4.62 C 674.34 4.80 683.67 4.52 693.00 4.75 C 699.97 6.23 707.00 3.60 714.00 5.05 C 718.34 5.94 722.65 4.44 727.00 4.63 C 730.68 4.62 734.33 5.85 738.00 4.97 C 742.32 4.01 746.67 5.71 751.00 4.81 C 754.99 4.82 759.01 5.89 763.01 4.98 C 769.00 3.71 775.02 6.15 781.00 4.81 C 788.66 4.47 796.36 4.74 804.00 5.24 C 808.65 4.19 813.33 5.75 818.00 4.71 C 827.27 5.41 836.82 6.54 845.09 11.17 C 853.81 14.95 861.20 21.44 866.71 29.14 C 870.79 34.58 872.58 41.36 873.34 48.02 C 873.35 61.68 873.38 75.35 873.33 89.01 C 872.35 96.26 869.33 103.84 863.07 108.11 C 868.89 113.14 872.32 120.45 873.34 128.00 C 873.36 142.33 873.37 156.67 873.34 171.01 C 872.00 178.63 869.17 186.21 863.99 192.10 C 860.28 197.46 854.61 200.89 849.23 204.35 C 837.54 211.43 823.51 213.77 810.00 213.28 C 750.33 213.26 690.67 213.28 631.00 213.26 C 626.03 213.23 620.97 213.79 616.10 212.47 C 616.69 169.84 616.02 127.19 616.44 84.55 C 676.62 84.81 736.81 84.59 797.00 84.66 C 802.32 84.51 807.67 84.98 812.97 84.46 C 816.76 82.72 815.73 78.37 815.82 74.99 C 815.74 68.63 815.87 62.27 815.81 55.91 C 815.99 53.97 814.12 52.88 812.87 51.80 C 810.30 51.18 807.61 51.60 805.00 51.50 C 733.64 51.51 662.28 51.53 590.92 51.49 C 589.04 51.18 588.22 53.46 588.54 54.96 C 588.64 107.56 588.46 160.16 588.63 212.76 C 586.42 212.95 584.22 213.24 582.01 213.32 C 565.34 213.23 548.66 213.24 531.99 213.31 C 522.85 213.24 513.87 210.54 506.05 205.86 C 498.60 200.79 492.94 193.64 487.33 186.70 C 475.29 172.36 463.65 157.69 451.57 143.38 C 430.86 118.98 410.85 93.95 390.13 69.58 C 389.37 70.01 388.61 70.42 387.84 70.82 C 387.78 118.13 387.87 165.44 387.80 212.75 C 289.46 212.67 191.12 212.84 92.79 212.66 C 100.68 198.44 109.26 184.60 116.97 170.27 C 118.03 168.74 118.53 166.02 120.96 166.55 C 150.63 166.47 180.31 166.61 209.99 166.48 C 207.68 161.15 204.20 156.44 201.46 151.33 C 192.24 135.00 182.45 119.00 173.24 102.66 C 167.61 93.30 161.83 84.02 156.77 74.33 C 155.19 71.64 152.42 68.86 149.00 69.48 C 146.93 69.96 145.57 71.83 144.38 73.46 C 135.78 88.68 127.01 103.81 118.06 118.82 C 100.44 149.51 82.71 180.16 64.99 210.80 C 63.77 213.47 60.48 213.14 58.03 213.35 C 41.01 213.22 23.99 213.22 6.98 213.35 C 4.99 213.33 3.03 212.90 1.15 212.30 C 4.81 207.61 7.35 202.21 10.26 197.05 C 23.24 174.40 36.36 151.84 49.24 129.13 C 70.01 94.17 89.78 58.61 110.25 23.46 C 113.18 17.37 117.99 12.47 123.18 8.27 M 673.40 131.43 C 673.28 143.13 673.32 154.83 673.39 166.53 C 719.28 166.54 765.17 166.53 811.06 166.54 C 813.46 166.82 815.97 164.52 815.80 162.08 C 815.86 153.70 815.74 145.31 815.85 136.93 C 816.33 134.18 813.75 131.45 811.07 131.44 C 765.18 131.44 719.29 131.46 673.40 131.43 Z" />
<path fill="#df0000" opacity="1.00" d=" M 929.05 11.79 C 936.94 7.24 946.09 6.00 954.97 4.83 C 963.32 4.00 971.67 5.60 980.00 4.69 C 986.34 4.43 992.66 6.05 999.00 5.06 C 1006.00 3.89 1012.99 5.67 1020.01 5.35 C 1029.00 5.19 1038.03 5.77 1046.99 4.73 C 1052.32 4.34 1057.66 4.95 1062.99 5.07 C 1068.66 4.17 1074.32 5.54 1080.02 5.31 C 1088.34 5.19 1096.67 5.44 1105.00 5.33 C 1109.00 5.29 1112.99 4.36 1117.00 5.05 C 1121.67 5.77 1126.32 4.46 1131.01 4.63 C 1136.02 4.48 1140.98 5.74 1146.01 5.19 C 1151.65 4.39 1157.33 5.98 1163.00 5.06 C 1169.32 3.96 1175.66 5.59 1182.00 4.95 C 1187.67 5.75 1193.32 4.30 1199.01 4.86 C 1203.99 5.44 1209.02 4.12 1214.01 5.06 C 1221.01 6.09 1227.98 4.27 1235.00 4.67 C 1238.66 4.75 1242.33 5.56 1246.00 4.97 C 1255.00 3.74 1263.99 5.69 1273.00 5.34 C 1283.00 5.11 1293.04 5.86 1303.00 4.74 C 1307.34 4.57 1311.66 5.80 1316.01 5.00 C 1321.32 4.17 1326.66 5.01 1331.99 5.09 C 1338.65 3.94 1345.32 6.10 1352.00 5.04 C 1358.31 4.03 1364.66 5.33 1370.99 4.81 C 1375.67 4.43 1380.32 5.85 1385.00 5.04 C 1388.80 4.37 1392.60 5.29 1396.35 5.89 C 1407.66 7.61 1418.46 12.53 1427.34 19.72 C 1435.85 27.03 1442.16 37.58 1442.52 48.98 C 1442.48 62.00 1442.46 75.03 1442.53 88.05 C 1442.54 96.22 1438.27 103.95 1431.94 108.97 C 1434.58 111.46 1437.31 114.04 1438.72 117.47 C 1440.62 122.13 1441.41 127.15 1442.35 132.07 C 1444.11 143.53 1447.03 154.85 1447.77 166.44 C 1459.97 166.60 1472.18 166.57 1484.39 166.46 C 1484.30 138.31 1484.38 110.15 1484.35 82.00 C 1484.20 56.52 1484.65 31.03 1484.12 5.56 C 1491.96 3.88 1500.04 4.96 1508.00 4.67 C 1518.64 5.49 1529.37 5.78 1540.01 4.71 C 1550.49 4.70 1561.10 7.99 1569.40 14.49 C 1575.65 19.64 1580.95 25.82 1585.95 32.16 C 1592.42 39.71 1598.44 47.62 1604.90 55.17 C 1616.53 68.28 1627.18 82.22 1638.38 95.70 C 1652.00 112.06 1665.60 128.47 1679.02 145.00 C 1680.32 146.73 1682.34 147.53 1684.43 147.91 C 1684.43 100.40 1684.45 52.90 1684.42 5.39 C 1732.80 5.26 1781.19 5.30 1829.58 5.37 C 1829.30 74.91 1829.78 144.46 1829.34 214.00 L 1772.69 214.00 C 1772.38 159.83 1772.61 105.65 1772.57 51.47 C 1764.37 51.56 1756.16 51.51 1747.96 51.48 C 1745.47 51.53 1742.94 51.43 1740.55 52.14 C 1741.05 74.75 1740.62 97.38 1740.76 120.00 C 1740.66 151.17 1740.97 182.36 1740.61 213.53 C 1720.41 213.38 1700.20 213.63 1680.00 213.42 C 1670.87 211.83 1661.66 208.66 1654.57 202.49 C 1648.77 197.54 1644.14 191.47 1639.30 185.64 C 1626.46 170.18 1613.94 154.45 1600.67 139.36 C 1582.91 117.45 1564.72 95.91 1546.96 74.01 C 1545.41 71.99 1543.28 70.45 1540.70 70.23 C 1540.63 118.00 1540.83 165.79 1540.60 213.56 C 1494.73 213.39 1448.86 213.54 1402.99 213.49 C 1400.27 214.13 1399.55 211.03 1399.12 209.04 C 1394.59 185.94 1390.63 162.73 1385.98 139.65 C 1385.46 135.96 1383.45 131.46 1379.00 131.86 C 1336.64 131.84 1294.28 131.89 1251.92 131.83 C 1250.63 131.86 1249.38 131.97 1248.16 132.27 C 1247.64 133.41 1247.69 134.69 1247.66 135.92 C 1247.77 161.52 1247.63 187.13 1247.74 212.73 C 1228.93 212.73 1210.12 212.76 1191.31 212.71 C 1191.42 170.30 1191.20 127.89 1191.42 85.49 C 1254.28 85.72 1317.15 85.51 1380.01 85.59 C 1383.07 86.01 1385.97 83.07 1385.49 80.01 C 1385.43 70.92 1385.53 61.83 1385.37 52.73 C 1383.29 52.21 1381.21 51.55 1379.06 51.52 C 1241.02 51.49 1102.97 51.53 964.93 51.49 C 961.80 51.03 958.38 53.73 958.52 56.95 C 958.45 66.15 958.56 75.37 958.51 84.58 C 1025.42 84.81 1092.35 84.53 1159.27 84.72 C 1159.33 100.09 1159.00 115.47 1159.44 130.83 C 1155.36 131.77 1151.14 131.41 1147.00 131.44 C 1084.15 131.44 1021.30 131.44 958.46 131.44 C 958.63 141.31 958.43 151.19 958.51 161.07 C 958.29 163.90 961.16 166.64 963.96 166.52 C 1029.07 166.62 1094.19 166.40 1159.30 166.63 C 1159.13 182.42 1159.36 198.21 1159.18 214.00 L 950.25 214.00 C 945.10 211.32 939.11 211.30 933.88 208.87 C 926.67 205.63 919.56 201.72 914.06 195.94 C 906.29 188.49 901.13 177.92 901.51 167.03 C 901.60 127.38 901.52 87.72 901.55 48.06 C 902.57 31.84 915.08 18.70 929.05 11.79 Z" />
<path fill="#df0000" opacity="1.00" d=" M 1889.40 12.15 C 1899.24 6.57 1910.83 4.94 1922.00 5.32 C 1978.50 5.41 2034.99 5.15 2091.48 5.45 C 2091.34 20.34 2091.48 35.22 2091.43 50.11 C 2091.10 50.46 2090.44 51.15 2090.12 51.50 C 2035.07 51.53 1980.02 51.51 1924.97 51.50 C 1922.03 51.15 1919.07 54.00 1919.52 56.97 C 1919.56 91.66 1919.56 126.34 1919.52 161.03 C 1919.12 163.97 1921.99 166.93 1924.96 166.55 C 1978.64 166.49 2032.32 166.58 2086.00 166.50 C 2087.86 166.69 2090.36 165.74 2091.42 167.90 C 2091.55 182.71 2091.20 197.54 2091.58 212.36 C 2086.87 213.97 2081.85 213.15 2077.00 213.26 C 2024.33 213.29 1971.66 213.23 1918.99 213.30 C 1903.01 212.79 1886.57 207.44 1875.34 195.66 C 1868.01 189.13 1863.77 179.62 1862.56 169.99 C 1862.45 130.66 1862.58 91.33 1862.50 52.00 C 1862.09 43.45 1865.61 35.27 1870.05 28.15 C 1875.40 21.66 1881.70 15.75 1889.40 12.15 Z" />
</g>
</svg>
